<?xml version="1.0" encoding="UTF-8" standalone="no"?>
<svg
   width="27.516462"
   height="25.000002"
   viewBox="0 0 321.94263 265.75004"
   version="1.1"
   id="svg1"
   sodipodi:docname="devel.svg"
   inkscape:version="1.4.2 (ebf0e940d0, 2025-05-08)"
   xmlns:inkscape="http://www.inkscape.org/namespaces/inkscape"
   xmlns:x="adobe:ns:meta/"
   xmlns:sodipodi="http://sodipodi.sourceforge.net/DTD/sodipodi-0.dtd"
   xmlns="http://www.w3.org/2000/svg"
   xmlns:svg="http://www.w3.org/2000/svg"
   xmlns:rdf="http://www.w3.org/1999/02/22-rdf-syntax-ns#">
  <sodipodi:namedview
     id="namedview1"
     pagecolor="#ffffff"
     bordercolor="#000000"
     borderopacity="0"
     inkscape:showpageshadow="2"
     inkscape:pageopacity="0.0"
     inkscape:pagecheckerboard="true"
     inkscape:deskcolor="#d1d1d1"
     inkscape:zoom="19.487863"
     inkscape:cx="20.756509"
     inkscape:cy="11.032508"
     inkscape:window-width="1920"
     inkscape:window-height="1048"
     inkscape:window-x="1712"
     inkscape:window-y="0"
     inkscape:window-maximized="1"
     inkscape:current-layer="svg1"
     showborder="false" />
  <defs
     id="defs1" />
  <metadata
     id="metadata1">
<?xpacket begin="&#65279;" id="W5M0MpCehiHzreSzNTczkc9d"?>    <x:xmpmeta
       x:xmptk="Adobe XMP Core 5.6-c138 79.159824, 2016/09/14-01:09:01        ">
      <rdf:RDF>
        <rdf:Description
           rdf:about="" />
      </rdf:RDF>
    </x:xmpmeta>
<?xpacket end="w"?>  </metadata>
  <path
     style="fill:#000000"
     d="M 0,132.87502 V -13.374999 H 47.878647 95.757294 V 4.3719041 22.118807 l -30.061737,0.07001 -30.061736,0.07001 V 132.87502 243.49121 l 31.43756,0.07 31.43756,0.07 v 17.74696 17.74695 H 49.25447 0 Z m 223.43369,128.50306 v -17.74696 l 31.43756,-0.07 31.43756,-0.07 V 132.87502 22.258824 l -30.06174,-0.07001 -30.06174,-0.07001 V 4.3719041 -13.374999 h 47.87865 47.87865 V 132.87502 279.12503 H 272.68816 223.43369 Z M 116.64977,194.36605 c -6.0541,-0.9275 -10.87493,-5.02718 -12.93295,-10.99832 -0.72116,-2.09237 -0.87116,-6.72716 -0.28497,-8.80527 1.25055,-4.43331 4.4392,-8.3697 8.28499,-10.22781 2.65385,-1.28222 4.52689,-1.71048 7.42945,-1.69871 4.39776,0.0178 8.16233,1.66354 11.25641,4.9208 4.77519,5.02703 5.80301,11.92239 2.72593,18.28747 -1.14282,2.36398 -4.3908,5.65177 -6.76624,6.84916 -2.94594,1.48497 -6.70839,2.13293 -9.71262,1.67268 z m 41.01748,0.0208 c -7.85116,-1.04151 -13.79762,-7.71715 -13.85982,-15.55939 -0.0108,-1.36206 0.14646,-3.15751 0.34948,-3.98988 0.92599,-3.79657 3.32599,-7.26167 6.53131,-9.42987 6.4233,-4.34496 14.83444,-3.55798 20.29093,1.89851 3.07868,3.07868 4.57589,6.74175 4.57589,11.19538 0,4.66265 -1.48998,8.22767 -4.76626,11.40408 -3.58614,3.47682 -8.37194,5.11124 -13.12153,4.48117 z m 40.72437,-0.003 c -4.92371,-0.64471 -9.65412,-3.89031 -11.888,-8.15652 -1.42864,-2.72838 -1.94319,-4.76083 -1.94319,-7.67543 0,-7.2404 4.66256,-13.35288 11.76954,-15.42953 1.03268,-0.30175 2.57844,-0.48242 4.12747,-0.48242 7.21592,0 13.37952,4.70705 15.42206,11.7776 0.29372,1.01676 0.47495,2.5943 0.47495,4.13435 0,2.9146 -0.51455,4.94705 -1.94319,7.67543 -2.91501,5.56702 -9.64121,8.99171 -16.01964,8.15652 z"
     id="path1" />
</svg>
