<?xml version="1.0" encoding="UTF-8" standalone="no"?>
<svg
   enable-background="new 0 0 24 24"
   height="25"
   viewBox="0 0 32.35294 25"
   width="32.35294"
   fill="#013243"
   version="1.1"
   id="svg7"
   sodipodi:docname="user_guide.svg"
   inkscape:version="1.4.2 (ebf0e940d0, 2025-05-08)"
   xmlns:inkscape="http://www.inkscape.org/namespaces/inkscape"
   xmlns:sodipodi="http://sodipodi.sourceforge.net/DTD/sodipodi-0.dtd"
   xmlns="http://www.w3.org/2000/svg"
   xmlns:svg="http://www.w3.org/2000/svg">
  <defs
     id="defs7" />
  <sodipodi:namedview
     id="namedview7"
     pagecolor="#ffffff"
     bordercolor="#000000"
     borderopacity="0.25"
     inkscape:showpageshadow="2"
     inkscape:pageopacity="0.0"
     inkscape:pagecheckerboard="true"
     inkscape:deskcolor="#d1d1d1"
     inkscape:zoom="7.1770833"
     inkscape:cx="32.394775"
     inkscape:cy="15.465893"
     inkscape:window-width="1920"
     inkscape:window-height="1048"
     inkscape:window-x="1712"
     inkscape:window-y="0"
     inkscape:window-maximized="1"
     inkscape:current-layer="svg7"
     showborder="false" />
  <g
     id="g1"
     transform="translate(-1,-4.4999998)">
    <rect
       fill="none"
       height="24"
       width="24"
       id="rect1"
       x="0"
       y="0" />
  </g>
  <g
     id="g7"
     transform="matrix(1.4705882,0,0,1.4705882,-1.4705882,-6.6176469)"
     style="stroke-width:0.68;fill:#000000">
    <g
       id="g2"
       style="stroke-width:0.68;fill:#000000" />
    <g
       id="g6"
       style="stroke-width:0.68;fill:#000000">
      <path
         d="M 21,5 C 19.89,4.65 18.67,4.5 17.5,4.5 15.55,4.5 13.45,4.9 12,6 10.55,4.9 8.45,4.5 6.5,4.5 4.55,4.5 2.45,4.9 1,6 v 14.65 c 0,0.25 0.25,0.5 0.5,0.5 0.1,0 0.15,-0.05 0.25,-0.05 C 3.1,20.45 5.05,20 6.5,20 c 1.95,0 4.05,0.4 5.5,1.5 1.35,-0.85 3.8,-1.5 5.5,-1.5 1.65,0 3.35,0.3 4.75,1.05 0.1,0.05 0.15,0.05 0.25,0.05 0.25,0 0.5,-0.25 0.5,-0.5 V 6 C 22.4,5.55 21.75,5.25 21,5 Z m 0,13.5 C 19.9,18.15 18.7,18 17.5,18 15.8,18 13.35,18.65 12,19.5 V 8 c 1.35,-0.85 3.8,-1.5 5.5,-1.5 1.2,0 2.4,0.15 3.5,0.5 z"
         id="path2"
         style="stroke-width:0.68;fill:#000000" />
      <g
         id="g5"
         style="stroke-width:0.68;fill:#000000">
        <path
           d="m 17.5,10.5 c 0.88,0 1.73,0.09 2.5,0.26 V 9.24 C 19.21,9.09 18.36,9 17.5,9 15.8,9 14.26,9.29 13,9.83 v 1.66 c 1.13,-0.64 2.7,-0.99 4.5,-0.99 z"
           id="path3"
           style="stroke-width:0.68;fill:#000000" />
        <path
           d="m 13,12.49 v 1.66 c 1.13,-0.64 2.7,-0.99 4.5,-0.99 0.88,0 1.73,0.09 2.5,0.26 V 11.9 c -0.79,-0.15 -1.64,-0.24 -2.5,-0.24 -1.7,0 -3.24,0.3 -4.5,0.83 z"
           id="path4"
           style="stroke-width:0.68;fill:#000000" />
        <path
           d="m 17.5,14.33 c -1.7,0 -3.24,0.29 -4.5,0.83 v 1.66 c 1.13,-0.64 2.7,-0.99 4.5,-0.99 0.88,0 1.73,0.09 2.5,0.26 v -1.52 c -0.79,-0.16 -1.64,-0.24 -2.5,-0.24 z"
           id="path5"
           style="stroke-width:0.68;fill:#000000" />
      </g>
    </g>
  </g>
</svg>
